<?xml version="1.0" ?><!DOCTYPE svg  PUBLIC '-//W3C//DTD SVG 1.1//EN'  'http://www.w3.org/Graphics/SVG/1.1/DTD/svg11.dtd'><svg height="512px" style="enable-background:new 0 0 512 512;" version="1.1" viewBox="0 0 512 512" width="512px" xml:space="preserve" xmlns="http://www.w3.org/2000/svg" xmlns:xlink="http://www.w3.org/1999/xlink"><g id="facebook_x2C__social_x2C__media_x2C__network"><g><path d="M442.766,116.205L281.723,23.212c-8.082-4.659-17.07-7.046-26.087-7.207l0,0    c-0.015,0-0.022,0-0.037,0c-0.007,0-0.021,0-0.036,0l0,0c-9.018,0.161-18.006,2.548-26.089,7.207l-161.05,92.985    c-16.721,9.659-27.03,27.497-27.03,46.817v185.956c0,19.32,10.31,37.172,27.03,46.818l161.05,92.992    c8.083,4.658,17.064,7.045,26.089,7.207v0.006c0.015,0,0.029-0.006,0.036-0.006c0.015,0,0.022,0.006,0.037,0.006v-0.006    c9.009-0.162,18.005-2.541,26.087-7.207l161.043-92.986c16.729-9.652,27.031-27.496,27.031-46.816V163.022    C469.797,143.703,459.494,125.85,442.766,116.205z" style="fill:#1A234F;"/><path d="M271.275,215.688v-19.371c0-9.434,6.293-11.639,10.695-11.639    c4.426,0,27.186,0,27.186,0v-41.465l-37.422-0.168c-41.538,0-50.971,30.943-50.971,50.76v21.883h-24.015v29.272v19.167h24.227    c0,54.893,0,121.088,0,121.088h48.431c0,0,0-66.867,0-121.088h35.938l1.746-19.028l2.68-29.411H271.275z" id="XMLID_100_" style="fill:#FFFFFF;"/></g></g><g id="Layer_1"/></svg>