<?xml version="1.0" ?><!DOCTYPE svg  PUBLIC '-//W3C//DTD SVG 1.1//EN'  'http://www.w3.org/Graphics/SVG/1.1/DTD/svg11.dtd'><svg height="512px" style="enable-background:new 0 0 512 512;" version="1.1" viewBox="0 0 512 512" width="512px" xml:space="preserve" xmlns="http://www.w3.org/2000/svg" xmlns:xlink="http://www.w3.org/1999/xlink"><g id="instagram_x2C__social_x2C__mediai"><g><linearGradient gradientUnits="userSpaceOnUse" id="SVGID_1_" x1="41.3931" x2="469.7969" y1="256" y2="256"><stop offset="0" style="stop-color:#FEC054"/><stop offset="0.3273" style="stop-color:#EE2540"/><stop offset="0.6485" style="stop-color:#AC3D96"/><stop offset="1" style="stop-color:#5755A5"/></linearGradient><path d="M442.766,116.207L281.723,23.214c-8.082-4.658-17.07-7.046-26.087-7.206V16    c-0.015,0-0.022,0.008-0.037,0.008c-0.007,0-0.021-0.008-0.036-0.008v0.008c-9.018,0.16-18.006,2.548-26.089,7.206l-161.05,92.979    c-16.721,9.667-27.03,27.505-27.03,46.825v185.959c0,19.32,10.31,37.165,27.03,46.817l161.05,92.993    c8.083,4.658,17.064,7.038,26.089,7.199V496c0.015,0,0.029-0.014,0.036-0.014c0.015,0,0.022,0.014,0.037,0.014v-0.014    c9.009-0.146,18.005-2.541,26.087-7.199l161.043-92.993c16.729-9.652,27.031-27.497,27.031-46.817V163.018    C469.797,143.704,459.494,125.853,442.766,116.207z" style="fill:url(#SVGID_1_);"/><path d="M324.949,260.559c0-39.633-32.105-71.709-71.687-71.709    c-39.618,0-71.694,32.076-71.694,71.709c0,39.585,32.076,71.653,71.694,71.653C292.844,332.212,324.949,300.144,324.949,260.559    L324.949,260.559z M323.584,179.095c-6.396,0-11.545,5.206-11.545,11.559c0,6.389,5.148,11.522,11.545,11.522    c6.344,0,11.551-5.134,11.551-11.522C335.135,184.301,329.928,179.095,323.584,179.095L323.584,179.095z M194.674,162.535H311.85    c21.715,0,39.422,17.75,39.422,39.392v117.216c0,21.7-17.707,39.385-39.422,39.385H194.674c-21.686,0-39.421-17.685-39.421-39.385    V201.927C155.253,180.285,172.989,162.535,194.674,162.535L194.674,162.535z M311.85,149.407H194.674    c-28.885,0-52.557,23.649-52.557,52.52v117.216c0,28.929,23.672,52.542,52.557,52.542H311.85    c28.928,0,52.541-23.613,52.541-52.542V201.927C364.391,173.057,340.777,149.407,311.85,149.407L311.85,149.407z M196.47,260.559    c0-31.382,25.438-56.835,56.792-56.835c31.382,0,56.785,25.453,56.785,56.835c0,31.334-25.402,56.787-56.785,56.787    C221.909,317.346,196.47,291.893,196.47,260.559L196.47,260.559z" style="fill-rule:evenodd;clip-rule:evenodd;fill:#FFFFFF;"/></g></g><g id="Layer_1"/></svg>