<?xml version="1.0" ?><!DOCTYPE svg  PUBLIC '-//W3C//DTD SVG 1.1//EN'  'http://www.w3.org/Graphics/SVG/1.1/DTD/svg11.dtd'><svg height="512px" style="enable-background:new 0 0 512 512;" version="1.1" viewBox="0 0 512 512" width="512px" xml:space="preserve" xmlns="http://www.w3.org/2000/svg" xmlns:xlink="http://www.w3.org/1999/xlink"><g id="twitter_x2C__logo_x2C__network_x2C__media_x2C__social"><g><path d="M442.773,116.205L281.717,23.219c-8.076-4.658-17.057-7.046-26.082-7.206v-0.008    c-0.015,0-0.022,0.008-0.029,0.008c-0.015,0-0.029-0.008-0.044-0.008v0.008c-9.01,0.16-18.006,2.548-26.081,7.206L68.423,116.205    c-16.721,9.652-27.03,27.498-27.03,46.817v185.957c0,19.32,10.31,37.172,27.03,46.816l161.058,92.994    c8.075,4.658,17.057,7.045,26.081,7.205l0,0c0.015,0,0.029,0,0.044,0c0.007,0,0.015,0,0.029,0l0,0    c9.009-0.16,18.005-2.541,26.082-7.205l161.057-92.979c16.721-9.66,27.031-27.506,27.031-46.824V163.03    C469.805,143.709,459.494,125.857,442.773,116.205z" style="fill:#49A1DA;"/><path d="M388.311,183.912c-8.871,3.877-18.473,6.499-28.525,7.682    c10.271-6.038,18.143-15.625,21.859-27.06c-9.607,5.607-20.24,9.696-31.572,11.88c-9.039-9.5-21.955-15.443-36.273-15.443    c-27.402,0-49.664,21.905-49.664,48.906c0,3.841,0.438,7.557,1.277,11.149c-41.305-2.052-77.916-21.525-102.419-51.111    c-4.234,7.229-6.717,15.641-6.717,24.6c0,16.954,8.783,31.93,22.131,40.698c-8.156-0.248-15.83-2.453-22.525-6.111    c0,0.197,0,0.424,0,0.606c0,6.257,1.197,12.223,3.373,17.728c6.09,15.334,19.758,26.936,36.508,30.25    c-4.191,1.088-8.602,1.73-13.121,1.73c-3.184,0-6.309-0.328-9.367-0.92c6.352,19.422,24.687,33.602,46.423,33.959    c-17.02,13.143-38.392,20.963-61.728,20.963c-4.016,0-7.914-0.227-11.828-0.672c21.992,13.867,48.103,21.963,76.155,21.963    c77.659,0,125.411-53.805,137.999-109.632c2.221-9.864,3.396-19.809,3.396-29.52c0-2.11-0.053-4.228-0.162-6.323    C373.24,202.327,381.66,193.718,388.311,183.912z" id="XMLID_62_" style="fill:#FFFFFF;"/></g></g><g id="Layer_1"/></svg>